<svg id="Flat" height="512" viewBox="0 0 512 512" width="512" xmlns="http://www.w3.org/2000/svg"><path d="m24 96h464v320h-464z" fill="#2d85cc"/><path d="m456 264v96s-24 0-32 24h-336c-8-24-32-24-32-24v-208s24 0 32-24h336c8 24 32 24 32 24z" fill="#e9eef2"/><path d="m120 176h144v32h-144z" fill="#b6b9ba"/><g fill="#c3c6c7"><path d="m288 248h-192a8 8 0 0 1 0-16h192a8 8 0 0 1 0 16z"/><path d="m288 280h-192a8 8 0 0 1 0-16h192a8 8 0 0 1 0 16z"/><path d="m240 312h-96a8 8 0 0 1 0-16h96a8 8 0 0 1 0 16z"/></g><path d="m408 336-32-32-32 32v-112h64z" fill="#d13330"/><circle cx="376" cy="224" fill="#eb423f" r="48"/><circle cx="376" cy="224" fill="#d13330" r="16"/><path d="m176 344h-32a8 8 0 0 1 0-16h32a8 8 0 0 1 0 16z" fill="#c3c6c7"/><path d="m240 344h-32a8 8 0 0 1 0-16h32a8 8 0 0 1 0 16z" fill="#c3c6c7"/></svg>